{
	"asset": {
		"generator": "Khronos glTF Blender I/O v1.7.33",
		"version": "2.0"
	},
	"scene": 0,
	"scenes": [
		{
			"name": "Scene",
			"nodes": [0, 1, 2, 3, 4, 5]
		}
	],
	"nodes": [
		{
			"mesh": 0,
			"name": "blade housing",
			"rotation": [0.7071068286895752, 0, 0, 0.7071068286895752],
			"scale": [
				0.019999980926513672, 0.019999980926513672, 0.019999980926513672
			],
			"translation": [0, -2.543131586207892e-6, -2.543131586207892e-6]
		},
		{
			"mesh": 1,
			"name": "blade-6",
			"rotation": [
				0.7071067690849304, -0.00027167858206667006, -0.0002716786111705005,
				0.7071067094802856
			],
			"scale": [
				0.019999980926513672, 0.019999980926513672, 0.019999980926513672
			],
			"translation": [0, 1.2715657248918433e-5, -2.5431309040868655e-6]
		},
		{
			"mesh": 2,
			"name": "guard-1",
			"rotation": [0.7071068286895752, 0, 0, 0.7071068286895752],
			"scale": [
				0.019999980926513672, 0.019999980926513672, 0.019999980926513672
			],
			"translation": [0, -2.543131586207892e-6, -2.543131586207892e-6]
		},
		{
			"mesh": 3,
			"name": "handle-2",
			"rotation": [0.7071068286895752, 0, 0, 0.7071068286895752],
			"scale": [
				0.019999980926513672, 0.019999980926513672, 0.019999980926513672
			],
			"translation": [0, -2.543131586207892e-6, -2.543131586207892e-6]
		},
		{
			"mesh": 4,
			"name": "Pommel-3",
			"rotation": [0.7071068286895752, 0, 0, 0.7071068286895752],
			"scale": [
				0.019999980926513672, 0.019999980926513672, 0.019999980926513672
			],
			"translation": [0, -2.543131586207892e-6, -2.543131586207892e-6]
		},
		{
			"mesh": 5,
			"name": "Stone-2",
			"rotation": [0.7071068286895752, 0, 0, 0.7071068286895752],
			"scale": [
				0.019999980926513672, 0.019999980926513672, 0.019999980926513672
			],
			"translation": [0, -2.543131586207892e-6, -2.543131586207892e-6]
		}
	],
	"meshes": [
		{
			"name": "blade housing",
			"primitives": [
				{
					"attributes": {
						"POSITION": 0,
						"NORMAL": 1
					},
					"indices": 2
				}
			]
		},
		{
			"name": "blade-6",
			"primitives": [
				{
					"attributes": {
						"POSITION": 3,
						"NORMAL": 4
					},
					"indices": 5
				}
			]
		},
		{
			"name": "guard-1",
			"primitives": [
				{
					"attributes": {
						"POSITION": 6,
						"NORMAL": 7
					},
					"indices": 8
				}
			]
		},
		{
			"name": "handle-2",
			"primitives": [
				{
					"attributes": {
						"POSITION": 9,
						"NORMAL": 10
					},
					"indices": 11
				}
			]
		},
		{
			"name": "Pommel-3",
			"primitives": [
				{
					"attributes": {
						"POSITION": 12,
						"NORMAL": 13
					},
					"indices": 14
				}
			]
		},
		{
			"name": "Stone-2",
			"primitives": [
				{
					"attributes": {
						"POSITION": 15,
						"NORMAL": 16
					},
					"indices": 17
				}
			]
		}
	],
	"accessors": [
		{
			"bufferView": 0,
			"componentType": 5126,
			"count": 869,
			"max": [113.33509826660156, 30.52823257446289, -447.33306884765625],
			"min": [-117.51126098632812, -29.803070068359375, -491.7830505371094],
			"type": "VEC3"
		},
		{
			"bufferView": 1,
			"componentType": 5126,
			"count": 869,
			"type": "VEC3"
		},
		{
			"bufferView": 2,
			"componentType": 5123,
			"count": 960,
			"type": "SCALAR"
		},
		{
			"bufferView": 3,
			"componentType": 5126,
			"count": 1688,
			"max": [107.54369354248047, 22.228641510009766, 871.946533203125],
			"min": [-113.11679077148438, -20.951356887817383, -472.23455810546875],
			"type": "VEC3"
		},
		{
			"bufferView": 4,
			"componentType": 5126,
			"count": 1688,
			"type": "VEC3"
		},
		{
			"bufferView": 5,
			"componentType": 5123,
			"count": 1770,
			"type": "SCALAR"
		},
		{
			"bufferView": 6,
			"componentType": 5126,
			"count": 1484,
			"max": [234.57852172851562, 25.49136734008789, -451.1374206542969],
			"min": [-248.93280029296875, -25.308631896972656, -516.4047241210938],
			"type": "VEC3"
		},
		{
			"bufferView": 7,
			"componentType": 5126,
			"count": 1484,
			"type": "VEC3"
		},
		{
			"bufferView": 8,
			"componentType": 5123,
			"count": 1572,
			"type": "SCALAR"
		},
		{
			"bufferView": 9,
			"componentType": 5126,
			"count": 25112,
			"max": [19.77410125732422, 21.594791412353516, -509.3481750488281],
			"min": [-23.353343963623047, -21.412057876586914, -764.1683349609375],
			"type": "VEC3"
		},
		{
			"bufferView": 10,
			"componentType": 5126,
			"count": 25112,
			"type": "VEC3"
		},
		{
			"bufferView": 11,
			"componentType": 5123,
			"count": 25158,
			"type": "SCALAR"
		},
		{
			"bufferView": 12,
			"componentType": 5126,
			"count": 29818,
			"max": [30.094541549682617, 25.962657928466797, -763.097412109375],
			"min": [-34.28691864013672, -25.62469482421875, -864.3707275390625],
			"type": "VEC3"
		},
		{
			"bufferView": 13,
			"componentType": 5126,
			"count": 29818,
			"type": "VEC3"
		},
		{
			"bufferView": 14,
			"componentType": 5123,
			"count": 30054,
			"type": "SCALAR"
		},
		{
			"bufferView": 15,
			"componentType": 5126,
			"count": 534,
			"max": [8.731998443603516, 32.88113784790039, -461.28717041015625],
			"min": [-12.521724700927734, -33.15886306762695, -510.37054443359375],
			"type": "VEC3"
		},
		{
			"bufferView": 16,
			"componentType": 5126,
			"count": 534,
			"type": "VEC3"
		},
		{
			"bufferView": 17,
			"componentType": 5123,
			"count": 582,
			"type": "SCALAR"
		}
	],
	"bufferViews": [
		{
			"buffer": 0,
			"byteLength": 10428,
			"byteOffset": 0
		},
		{
			"buffer": 0,
			"byteLength": 10428,
			"byteOffset": 10428
		},
		{
			"buffer": 0,
			"byteLength": 1920,
			"byteOffset": 20856
		},
		{
			"buffer": 0,
			"byteLength": 20256,
			"byteOffset": 22776
		},
		{
			"buffer": 0,
			"byteLength": 20256,
			"byteOffset": 43032
		},
		{
			"buffer": 0,
			"byteLength": 3540,
			"byteOffset": 63288
		},
		{
			"buffer": 0,
			"byteLength": 17808,
			"byteOffset": 66828
		},
		{
			"buffer": 0,
			"byteLength": 17808,
			"byteOffset": 84636
		},
		{
			"buffer": 0,
			"byteLength": 3144,
			"byteOffset": 102444
		},
		{
			"buffer": 0,
			"byteLength": 301344,
			"byteOffset": 105588
		},
		{
			"buffer": 0,
			"byteLength": 301344,
			"byteOffset": 406932
		},
		{
			"buffer": 0,
			"byteLength": 50316,
			"byteOffset": 708276
		},
		{
			"buffer": 0,
			"byteLength": 357816,
			"byteOffset": 758592
		},
		{
			"buffer": 0,
			"byteLength": 357816,
			"byteOffset": 1116408
		},
		{
			"buffer": 0,
			"byteLength": 60108,
			"byteOffset": 1474224
		},
		{
			"buffer": 0,
			"byteLength": 6408,
			"byteOffset": 1534332
		},
		{
			"buffer": 0,
			"byteLength": 6408,
			"byteOffset": 1540740
		},
		{
			"buffer": 0,
			"byteLength": 1164,
			"byteOffset": 1547148
		}
	],
	"buffers": [
		{
			"byteLength": 1548312,
			"uri": "data:application/octet-stream;base64,"
		}
	]
}
